   <svg
      xmlns="http://www.w3.org/2000/svg"
      width="52"
      height="101"
      viewBox="0 0 52 101"
      fill="none"
    >
      <g clipPath="url(#clip0_2228_29093)">
        <path d="M0.5 51.3306H25.15V75.4177H0.5V51.3306Z" fill="#0063AC" />
        <path
          d="M6.79004 55.1512V64.62C6.79004 69.6035 9.34004 71.4308 12.74 71.4308C16.31 71.4308 18.86 69.4374 18.86 64.4539V54.9851H16.82V64.62C16.82 68.1085 15.12 69.7697 12.74 69.7697C10.53 69.7697 8.83004 68.2746 8.83004 64.62V55.1512H6.79004Z"
          fill="white"
        />
        <path
          d="M26.6802 51.3306H51.3302V75.4177H26.6802V51.3306Z"
          fill="#0063AC"
        />
        <path
          d="M34.8401 71.431V64.6202C34.8401 61.9623 34.8401 59.9688 34.6701 57.9754C35.5201 59.8027 36.5401 61.63 37.7301 63.2912L43.0001 71.431H45.2101V55.4836H43.3401V62.2945C43.3401 64.7863 43.3401 66.7797 43.6801 68.9392C43.0001 67.278 41.9801 65.6169 40.7901 63.6234L35.5201 55.4836H33.1401V71.5971L34.8401 71.431Z"
          fill="white"
        />
        <path
          d="M26.6802 76.9128H51.3302V101H26.6802V76.9128Z"
          fill="#0063AC"
        />
        <path
          d="M43.1701 82.0626C42.1501 81.232 40.6201 80.7336 38.4101 80.7336C36.7101 80.7336 35.3501 80.8998 34.3301 81.0659V97.0133H36.3701V90.5346C36.8801 90.7008 37.3901 90.7007 38.0701 90.7007C40.1101 90.7007 41.9801 90.0363 43.0001 88.8734C43.8501 88.0429 44.3601 86.88 44.3601 85.385C44.7001 84.056 44.1901 82.8932 43.1701 82.0626Z"
          fill="white"
        />
        <path
          d="M38.41 89.0395C37.73 89.0395 37.05 89.0395 36.54 88.8734V82.727C36.88 82.727 37.56 82.5609 38.58 82.5609C40.96 82.5609 42.49 83.5576 42.49 85.7171C42.49 87.8767 40.96 89.0395 38.41 89.0395ZM0.5 76.9128H25.15V101H0.5V76.9128Z"
          fill="#0063AC"
        />
        <path
          d="M17.8401 82.7271C16.4801 81.3981 14.2701 80.7336 11.2101 80.7336C9.51012 80.7336 7.98012 80.8998 6.62012 81.0659V97.0133C7.64012 97.1794 9.00012 97.1794 10.5301 97.1794C13.7601 97.1794 16.3101 96.3488 17.8401 94.8537C19.3701 93.3586 20.2201 91.1991 20.2201 88.7073C20.2201 85.8833 19.3701 84.056 17.8401 82.7271Z"
          fill="white"
        />
        <path
          d="M11.04 95.352C10.19 95.352 9.34 95.352 8.83 95.1859V82.5609C9.34 82.3947 10.19 82.2286 11.38 82.2286C15.97 82.2286 18.01 84.5543 18.01 88.375C18.01 92.8602 15.46 95.5181 11.04 95.352ZM0.5 0H51.5V49.8355H0.5V0Z"
          fill="#0063AC"
        />
        <path
          d="M44.1901 25.9146C43.5101 26.9113 42.4901 27.7419 41.9801 28.9047C41.9801 28.0741 42.1501 27.0774 41.8101 26.4129C41.3001 24.7517 40.7901 23.2567 40.6201 21.2632V20.5988C40.9601 22.4261 42.8301 23.755 42.6601 25.7484C42.6601 26.2468 42.4901 26.7451 42.3201 27.0774V26.9113C42.6601 25.9146 42.6601 24.9178 43.1701 23.9211C43.8501 22.5922 44.5301 21.2632 44.1901 19.6021C45.5501 21.5955 45.2101 24.0872 44.1901 25.9146Z"
          fill="white"
        />
        <path
          d="M43.1702 15.615C44.3602 17.2762 44.7002 19.768 43.6802 21.5953C43.3402 22.4259 43.1702 23.2565 43.0002 24.0871C43.0002 23.921 43.0002 23.7549 42.8302 23.5887C42.4902 21.7614 40.6202 20.4325 39.9402 18.9374C39.6002 18.4391 39.6002 17.9407 39.4302 17.1101C40.1102 18.4391 41.9802 19.1035 42.6602 20.7647C43.0002 21.097 42.8302 21.5953 43.0002 22.0937C42.6602 20.4325 42.8302 18.9374 43.0002 17.4424C43.0002 16.6118 42.8302 15.7812 42.4902 15.1167C42.6602 14.9506 42.8302 15.2828 43.1702 15.615Z"
          fill="white"
        />
        <path
          d="M42.3199 15.2829C42.6599 16.6118 42.1499 17.9408 42.4899 19.4358C41.6399 17.9408 40.1099 17.2763 38.9199 16.1134C38.2399 15.449 37.8999 14.4523 37.8999 13.6217C38.5799 15.1167 40.2799 15.449 41.2999 16.7779C41.6399 17.1102 41.6399 17.4424 41.9799 17.7746C41.4699 16.6118 41.1299 15.2829 40.9599 13.7878L39.9399 12.2927C40.9599 12.625 41.9799 13.9539 42.3199 15.2829Z"
          fill="white"
        />
        <path
          d="M38.75 12.1266C39.77 13.1234 40.11 14.1201 40.45 15.2829L40.62 15.6151C39.26 14.6184 37.9 13.1234 36.88 11.7944L35.86 10.6316C36.71 10.9638 37.9 11.2961 38.75 12.1266ZM19.88 10.9638C21.75 9.96711 23.96 9.63487 26 9.46875C31.1 9.46875 36.03 12.4589 38.24 16.9441C39.6 19.602 40.11 23.2566 39.26 26.2467C38.24 29.9013 35.18 33.3898 31.61 34.8849C27.53 36.7122 21.92 36.3799 18.35 33.8882C13.42 30.7319 11.38 24.9178 12.91 19.2697C13.76 15.9474 16.48 12.4589 19.88 10.9638ZM15.97 10.9638C14.95 11.7944 14.27 12.9572 13.42 13.9539C12.74 14.6184 11.89 15.2829 11.04 15.9474C11.55 14.9507 11.55 13.9539 12.23 13.2895C13.08 11.7944 14.61 11.4622 15.97 10.9638Z"
          fill="white"
        />
        <path
          d="M10.3598 13.9538C10.6998 13.2894 11.3798 12.9571 12.2298 12.791C10.8698 13.7877 11.0398 15.2828 10.5298 16.7779C10.3598 17.1101 10.1898 17.7746 10.0198 18.1068C10.3598 17.6084 10.6998 17.1101 11.0398 16.4456C12.0598 15.4489 13.4198 14.9506 13.9298 13.6216C13.9298 15.4489 12.3998 16.7779 10.8698 17.7746C10.1898 18.2729 9.67984 18.7713 9.33984 19.6019V18.2729C9.50984 16.7779 9.33984 14.9506 10.3598 13.9538Z"
          fill="white"
        />
        <path
          d="M7.81017 19.1035C7.81017 17.4424 8.49017 16.2795 9.34017 15.1167C8.32017 16.6118 9.17017 18.6052 9.00017 20.2664L8.83017 22.0937C8.83017 21.7614 8.83017 21.7614 9.00017 21.4292C9.34017 19.9341 10.5302 18.9374 11.5502 17.9407C11.8902 17.6085 11.8902 17.4424 12.0602 17.1101C11.8902 17.7746 11.7202 18.6052 11.3802 19.2697C10.5302 20.9308 8.83017 22.2598 8.66017 24.0871C8.83017 22.4259 7.47017 20.9308 7.81017 19.1035Z"
          fill="white"
        />
        <path
          d="M6.9601 21.4294L7.4701 19.9343C7.1301 21.9277 8.4901 23.5889 9.0001 25.2501L9.5101 27.2435C8.8301 25.4162 9.8501 23.5889 10.8701 21.9277C11.2101 21.5955 11.2101 21.0972 11.3801 20.5988C11.5501 21.4294 11.2101 22.4261 11.0401 23.2567C10.7001 24.2534 10.3601 25.5824 10.0201 26.5791C9.6801 27.2435 9.8501 28.0741 10.0201 28.7386C9.3401 27.4097 7.8101 26.2468 7.4701 24.7518C6.9601 23.9212 6.6201 22.5922 6.9601 21.4294Z"
          fill="white"
        />
        <path
          d="M6.79004 25.4161C6.96004 27.5757 9.34004 28.7385 10.53 30.7319C10.87 31.0641 11.04 31.3964 11.55 31.7286C11.55 31.3964 11.21 31.3964 11.21 31.0641C10.87 30.2336 10.7 29.403 10.87 28.5724C11.04 27.5757 11.38 26.4128 11.21 25.25C12.23 27.2434 11.89 29.9013 12.4 32.0609C12.57 32.5592 12.74 33.0576 13.08 33.3898C11.04 32.0609 8.32004 30.898 7.47004 28.2401C6.79004 27.4095 6.79004 26.4128 6.79004 25.4161Z"
          fill="white"
        />
        <path
          d="M8.1499 30.3996C9.1699 32.8913 12.2299 33.0575 13.9299 34.5525C14.0999 34.8848 14.6099 35.217 14.9499 35.217C14.6099 34.8848 13.9299 34.3864 13.7599 33.8881C12.7399 32.393 13.0799 30.2334 12.2299 28.5723C12.9099 29.569 13.5899 30.3996 14.0999 31.5624C14.7799 33.2236 15.1199 35.0509 16.6499 36.2137C14.9499 35.7154 12.9099 35.8815 11.3799 34.8848C9.8499 33.8881 8.3199 32.393 8.1499 30.3996Z"
          fill="white"
        />
        <path
          d="M11.04 35.217C12.91 37.2104 15.8 36.546 18.18 37.0443C18.52 37.0443 18.86 37.2104 19.2 37.2104C18.86 37.0443 18.52 37.0443 18.18 36.8782C16.31 36.2137 15.97 34.3864 14.95 32.8914C16.31 33.7219 17.33 34.8848 18.52 36.0476C19.37 36.7121 20.39 37.0443 21.58 37.3766C21.24 37.5427 20.9 37.3766 20.56 37.5427C18.52 38.041 16.48 38.7055 14.27 38.041C13.08 37.3766 11.72 36.3798 11.04 35.217Z"
          fill="white"
        />
        <path
          d="M35.5201 39.7024C33.4801 40.3668 31.4401 39.7024 29.7401 38.5395C29.0601 38.2073 28.5501 37.5428 27.7001 37.5428H26.8501C28.3801 38.2073 29.9101 39.204 31.1001 40.5329C30.7601 40.8652 30.5901 41.0313 30.2501 41.1974C29.0601 39.8685 27.7001 38.7056 26.0001 37.8751C25.6601 37.8751 25.4901 38.2073 25.1501 38.2073C23.9601 39.0379 22.6001 40.0346 21.7501 41.3635L20.9001 40.5329C22.2601 39.204 23.6201 38.2073 25.1501 37.5428C23.6201 37.0445 22.6001 38.3734 21.4101 39.0379C20.0501 40.0346 18.1801 40.3668 16.4801 39.7024C15.4601 39.3701 14.6101 38.8718 14.1001 38.0412C15.4601 39.0379 17.3301 39.0379 18.8601 38.3734C20.9001 37.5428 22.9401 36.5461 25.3201 37.0445C25.6601 37.0445 26.0001 37.3767 26.3401 37.0445C28.2101 36.7122 30.0801 36.8783 31.7801 37.7089L33.4801 38.3734C35.0101 38.8718 36.7101 38.7056 38.2401 37.8751C37.2201 38.8718 36.5401 39.5362 35.5201 39.7024Z"
          fill="white"
        />
        <path
          d="M37.7298 37.7089C35.3498 38.5395 33.1398 37.5428 30.9298 37.2105H30.5898C31.6098 36.8783 32.6298 36.7122 33.4798 35.8816C34.6698 34.7188 35.8598 33.5559 37.2198 32.7253C36.1998 34.0543 36.1998 35.8816 34.4998 36.7122C34.1598 37.0444 33.4798 37.0444 33.1398 37.2105C33.8198 37.2105 34.1598 36.8783 35.0098 36.8783C37.2198 36.5461 39.7698 36.8783 41.2998 35.051C40.4498 36.2138 38.9198 37.3767 37.7298 37.7089Z"
          fill="white"
        />
        <path
          d="M38.9201 35.3831C37.9001 35.7154 36.5401 35.7154 35.3501 36.2137C37.2201 34.5525 37.2201 32.0608 38.4101 30.2334C38.7501 29.7351 39.0901 29.2367 39.6001 28.5723C38.7501 30.0673 39.2601 32.0608 38.2401 33.5558C37.9001 34.2203 37.3901 34.7186 36.8801 35.217C37.0501 35.217 37.2201 35.0509 37.3901 34.8848C38.9201 33.5558 40.6201 33.0575 42.3201 31.8946C43.0001 31.3963 43.5101 30.8979 43.8501 30.0673C43.6801 32.5591 41.1301 34.7186 38.9201 35.3831Z"
          fill="white"
        />
        <path
          d="M41.8098 31.3963C40.7898 31.8947 39.9398 32.3931 39.2598 33.2236C40.6198 31.0641 39.9398 28.074 40.7898 25.7483L41.1298 24.9177C40.9598 26.4128 41.6398 27.5756 41.4698 29.0707C41.4698 30.0674 41.1298 30.7319 40.6198 31.5625C41.2998 30.7319 41.6398 29.7352 42.4898 29.0707C43.6798 28.074 44.8698 26.745 45.0398 25.25C45.5498 27.7417 44.0198 30.0674 41.8098 31.3963Z"
          fill="white"
        />
        <path
          d="M31.6099 31.2304C32.1199 30.8981 32.6299 30.5659 32.9699 30.2337H32.6299C32.2899 30.2337 32.2899 29.9014 32.2899 29.9014L31.4399 29.0708V28.9047C31.4399 29.0708 31.2699 29.2369 31.0999 29.2369C31.0999 29.4031 31.0999 29.5692 31.2699 29.5692C31.6099 29.7353 31.9499 29.9014 31.9499 30.0675C31.7799 30.3998 31.2699 30.5659 31.6099 31.0642C31.7799 31.0642 31.4399 31.0642 31.6099 31.2304ZM26.8499 20.4327C27.0199 20.5988 27.1899 20.4327 27.1899 20.2666C27.3599 20.2666 27.5299 20.4327 27.5299 20.5988H27.8699C27.8699 20.1004 28.7199 20.2666 28.8899 19.6021H28.7199C28.7199 19.6021 28.5499 19.6021 28.5499 19.436L28.8899 19.1037C28.2099 18.7715 27.6999 18.4392 27.0199 18.2731C26.6799 18.2731 26.5099 18.2731 26.1699 18.107C26.3399 18.4392 26.1699 19.1037 26.3399 19.436L26.6799 19.6021C26.8499 19.2698 27.0199 19.2698 27.1899 19.1037H27.5299V19.6021C27.5299 20.2666 27.0199 20.2666 26.8499 20.4327ZM33.9899 24.9179C33.6499 25.9146 33.3099 26.7452 32.7999 27.4096C32.4599 27.7419 32.4599 28.0741 32.1199 28.2402L32.7999 28.7386V28.5725C32.7999 28.5725 32.7999 28.4064 32.9699 28.4064C33.3099 28.4064 33.3099 28.7386 33.3099 28.7386C33.3099 29.0708 33.4799 29.0708 33.4799 29.4031C35.1799 27.5758 36.0299 25.4162 36.1999 23.0906L36.3699 22.9244H34.3299C34.3299 23.2567 34.3299 23.755 34.1599 24.0873L34.4999 24.4195V24.7517C34.1599 25.084 34.1599 25.084 33.9899 24.9179ZM32.2899 19.1037C31.9499 18.7715 31.7799 18.2731 31.2699 17.9409C30.5899 18.6054 29.9099 19.2698 29.3999 19.9343L29.5699 20.1004C29.5699 19.9343 29.7399 19.7682 29.7399 19.7682C29.9099 19.436 30.0799 19.7682 30.4199 19.7682H31.4399C31.7799 19.9343 31.7799 20.1004 31.9499 20.2666V20.5988C31.9499 21.0971 32.2899 20.4327 32.4599 20.5988C32.6299 20.5988 32.7999 20.5988 32.7999 20.7649C32.7999 21.0971 33.1399 20.931 33.1399 21.0971C33.1399 21.2633 32.9699 21.2633 32.9699 21.2633C32.9699 21.5955 32.6299 21.5955 32.7999 21.7616C33.1399 21.7616 33.1399 21.4294 33.3099 21.2633C33.1399 20.931 33.1399 20.5988 32.9699 20.2666C32.6299 20.2666 32.6299 19.9343 32.4599 19.9343C31.9499 19.6021 32.4599 19.436 32.2899 19.1037ZM26.3399 32.8916C26.8499 32.7254 27.3599 32.7254 28.0399 32.5593C27.8699 32.5593 27.6999 32.5593 27.6999 32.3932C27.3599 32.3932 27.3599 32.061 27.1899 31.7287C27.1899 31.5626 27.1899 31.3965 27.3599 31.2304C27.1899 30.8981 26.8499 31.2304 26.5099 31.0642C26.5099 31.0642 26.3399 30.8981 26.1699 30.8981L26.3399 31.0642V32.8916ZM26.8499 27.7419C27.0199 27.7419 26.8499 28.0741 27.0199 28.0741C27.3599 27.908 27.5299 28.4064 27.6999 28.0741C27.6999 27.7419 28.0399 27.7419 28.2099 27.7419C28.5499 27.5758 28.8899 27.4096 28.8899 26.9113C28.5499 26.9113 28.5499 27.0774 28.5499 27.2435C28.3799 27.4096 28.2099 26.9113 28.2099 27.0774V27.2435C27.8699 27.5758 27.8699 27.0774 27.6999 27.2435V27.4096C27.5299 27.0774 27.3599 27.2435 27.1899 27.0774H26.8499C26.8499 27.2435 26.5099 27.0774 26.5099 27.2435C26.3399 27.2435 26.3399 27.5758 26.1699 27.5758C25.8299 27.5758 25.8299 27.908 25.6599 27.7419V27.908H25.9999C26.1699 27.5758 26.5099 27.908 26.8499 27.7419ZM28.7199 25.2501C28.7199 25.4162 28.7199 25.5823 28.8899 25.5823C29.2299 25.5823 29.0599 25.9146 29.2299 25.9146C29.3999 25.9146 29.2299 25.7485 29.2299 25.5823C29.2299 25.2501 29.0599 25.2501 28.7199 25.2501C28.8899 25.2501 28.8899 25.2501 28.7199 25.2501C28.8899 25.084 28.8899 25.084 28.7199 25.2501ZM28.5499 15.9475C27.8699 15.6152 27.1899 15.6152 26.3399 15.6152V17.6087H26.5099C27.5299 17.7748 28.7199 18.107 29.5699 18.7715V18.9376C29.9099 18.6054 30.2499 18.107 30.5899 17.7748L30.9299 17.6087H30.7599C30.0799 16.7781 29.2299 16.2797 28.5499 15.9475ZM15.7999 23.4228L15.9699 24.5856C15.9699 24.9179 16.3099 25.5823 16.3099 25.9146C16.3099 25.7485 16.3099 25.5823 16.6499 25.5823C16.6499 25.4162 16.8199 25.2501 16.6499 25.2501C16.6499 24.9179 16.8199 24.5856 16.9899 24.2534C17.3299 24.2534 17.3299 23.9212 17.6699 23.755C17.8399 23.755 18.0099 24.0873 18.0099 24.0873C17.6699 23.755 17.6699 23.4228 17.8399 23.0906H15.6299L15.7999 23.4228ZM28.0399 26.5791C28.2099 26.4129 28.5499 26.4129 28.5499 26.2468C28.3799 26.0807 28.3799 26.2468 28.0399 26.5791C27.8699 26.5791 27.8699 26.4129 28.0399 26.5791ZM32.2899 23.0906L32.6299 23.4228C32.9699 23.5889 32.6299 23.755 32.9699 23.9212C33.3099 24.0873 33.3099 24.2534 33.3099 24.5856V24.4195C33.4799 24.0873 33.3099 23.5889 33.4799 23.4228C33.1399 23.2567 32.6299 23.2567 32.2899 23.0906ZM29.5699 27.908C29.9099 27.908 29.9099 28.2402 30.2499 28.2402C30.5899 28.0741 30.9299 28.2402 31.0999 28.0741C31.0999 27.7419 31.2699 27.7419 31.4399 27.4096C31.6099 27.5758 31.6099 27.7419 31.6099 27.908C31.7799 27.5758 31.9499 27.5758 32.1199 27.2435C32.4599 26.5791 32.9699 25.9146 33.1399 25.2501C32.9699 25.2501 32.7999 25.2501 32.6299 25.4162C32.4599 25.4162 32.2899 25.5823 31.9499 25.4162H31.7799C31.7799 25.5823 31.6099 25.7485 31.4399 25.5823C31.2699 25.5823 31.2699 25.4162 31.2699 25.2501V25.5823C31.0999 25.7485 31.0999 25.9146 30.9299 25.9146C30.7599 26.0807 30.5899 26.0807 30.4199 26.2468C30.4199 26.5791 30.0799 26.5791 29.9099 26.5791H30.2499C30.5899 26.5791 30.5899 26.2468 30.5899 26.2468C30.7599 26.2468 30.9299 26.0807 30.9299 26.2468C31.0999 26.4129 31.0999 26.5791 31.0999 26.9113C30.9299 27.0774 31.0999 27.2435 30.9299 27.5758C30.9299 27.908 30.5899 27.908 30.5899 28.0741C30.4199 28.2402 30.2499 28.2402 30.2499 28.2402C29.7399 27.908 29.2299 27.908 28.5499 27.908C28.5499 27.908 28.3799 27.908 28.5499 28.0741C29.0599 27.7419 29.2299 27.7419 29.5699 27.908ZM25.4899 33.7221C22.7699 33.556 20.3899 32.7254 18.5199 30.732L17.1599 32.061C19.1999 33.8883 21.7499 35.0511 24.4699 35.2172C24.8099 35.2172 25.4899 35.2172 25.8299 35.3833L25.6599 35.2172L25.4899 33.7221ZM22.7699 26.5791C23.4499 27.0774 24.2999 27.5758 25.3199 27.5758V27.0774C25.3199 26.9113 25.6599 26.9113 25.6599 26.9113C25.6599 26.9113 25.8299 26.7452 25.6599 26.7452C25.4899 26.7452 25.4899 26.4129 25.4899 26.4129C25.4899 26.4129 25.6599 26.4129 25.6599 26.2468C25.4899 26.0807 25.6599 25.9146 25.6599 25.9146L25.8299 25.7485C25.4899 25.9146 24.9799 25.7485 24.6399 25.4162L24.2999 25.084L22.7699 26.5791ZM22.0899 24.4195C21.9199 24.4195 21.9199 24.4195 22.0899 24.4195H21.7499C21.7499 24.0873 21.4099 24.2534 21.2399 24.0873L21.7499 25.084C21.9199 25.4162 22.0899 25.5823 22.2599 25.9146C22.4299 25.5823 22.5999 25.5823 22.7699 25.2501V24.9179C22.7699 24.7517 22.7699 24.5856 22.5999 24.5856C22.4299 24.5856 22.5999 24.9179 22.5999 24.9179H22.4299C22.2599 24.9179 22.0899 24.7517 22.0899 24.5856C22.2599 24.5856 22.0899 24.5856 22.0899 24.4195ZM23.4499 24.5856C23.4499 24.7517 23.2799 24.9179 23.1099 24.9179C23.2799 24.7517 23.4499 24.5856 23.6199 24.5856H23.4499ZM25.4899 31.0642C23.7899 31.0642 22.4299 30.3998 21.0699 29.4031C21.0699 29.5692 21.4099 29.7353 21.2399 29.7353C21.0699 29.9014 20.8999 29.9014 20.7299 29.9014C20.3899 29.9014 20.0499 30.2337 19.7099 30.2337C19.3699 30.3998 19.3699 29.9014 19.0299 29.9014C20.8999 31.5626 23.1099 32.3932 25.6599 32.5593L25.8299 32.7254V30.732L25.4899 31.0642Z"
          fill="#0063AC"
        />
        <path
          d="M18.0102 30.2335C17.6702 30.0674 17.6702 29.9013 17.3302 29.569C16.9902 29.569 16.9902 29.2368 16.8202 29.2368V28.9045V29.0707C16.4802 29.2368 16.4802 28.9045 16.3102 28.7384C15.9702 28.5723 16.1402 28.0739 15.8002 28.2401C15.6302 28.2401 15.6302 28.0739 15.4602 28.0739C15.1202 28.0739 15.1202 27.7417 15.1202 27.7417V27.9078C14.7802 27.9078 14.7802 27.5756 14.6102 27.5756H14.4402C14.2702 27.4095 14.1002 27.2434 14.1002 26.9111C13.7602 26.5789 13.9302 26.2466 14.1002 25.9144C14.1002 25.9144 14.2702 25.7483 14.2702 25.5822C14.2702 25.4161 14.6102 25.4161 14.6102 25.4161C14.6102 25.4161 14.7802 25.4161 14.7802 25.5822C14.9502 25.5822 15.1202 25.5822 15.1202 25.4161C15.2902 25.2499 15.4602 25.2499 15.4602 25.2499C15.6302 25.4161 15.6302 25.5822 15.8002 25.5822L15.6302 25.4161C15.4602 24.7516 15.2902 24.0871 15.2902 23.4226V22.9243H12.9102C13.0802 25.0838 13.5902 26.9111 14.6102 28.7384C14.9502 29.7351 15.8002 30.3996 16.4802 31.2302L17.8402 29.9013L18.0102 30.2335ZM20.2202 14.6184C19.8802 14.9506 19.3702 15.2828 19.0302 15.6151C19.5402 15.9473 20.0502 16.4457 20.3902 16.7779V16.944C21.4102 15.9473 22.9402 15.2828 24.3002 14.9506C24.6402 14.9506 24.9802 14.7845 25.3202 14.9506V13.1233C23.4502 13.1233 21.9202 13.7878 20.2202 14.6184ZM18.5202 21.7614C18.5202 22.0937 18.5202 22.4259 18.3502 22.7582C18.6902 22.592 18.8602 22.7582 19.2002 22.7582C19.0302 22.7582 19.2002 22.4259 19.0302 22.4259C19.0302 22.2598 19.0302 22.0937 19.2002 21.9276C19.2002 21.5953 19.5402 21.5953 19.5402 21.2631C19.5402 20.9309 19.8802 21.097 20.0502 20.9309C20.2202 20.9309 20.0502 20.7647 20.0502 20.5986C20.2202 20.4325 20.3902 20.4325 20.5602 20.2664L20.9002 19.9341C21.2402 19.9341 21.2402 19.4358 21.7502 19.4358C21.2402 19.1036 20.7302 18.4391 20.2202 18.1068C19.5402 19.1036 18.8602 20.2664 18.5202 21.7614ZM18.8602 24.4193C18.8602 24.2532 18.6902 24.2532 18.6902 24.0871C18.8602 23.7549 18.6902 23.4226 19.0302 23.4226C18.6902 23.4226 18.6902 23.5888 18.3502 23.4226L18.5202 23.5888C18.5202 23.921 18.6902 24.4193 18.6902 24.9177C18.6902 24.5855 18.6902 24.4193 18.8602 24.4193Z"
          fill="#0063AC"
        />
        <path
          d="M18.5202 16.1135L17.8402 17.1102C16.6502 18.7714 15.9702 20.5987 15.9702 22.5921H18.0102V22.426C18.1802 20.5987 18.8602 18.7714 20.2202 17.4424C19.5402 16.9441 19.0302 16.6118 18.5202 16.1135ZM24.1302 28.5723C24.3002 28.4062 24.4702 28.2401 24.6402 28.2401C23.9602 28.4062 23.6202 27.9079 22.9402 27.7418C22.6002 27.5756 22.2602 27.4095 22.0902 27.0773C21.7502 27.5756 21.2402 28.074 20.7302 28.4062C21.0702 28.4062 21.0702 28.7385 21.2402 28.7385C22.2602 29.569 23.6202 29.9013 24.6402 30.2335L24.3002 30.0674C23.9602 29.7352 23.7902 29.4029 23.6202 29.0707C24.1302 28.9046 24.1302 28.7385 24.1302 28.5723ZM19.5402 23.2566V23.5888C19.5402 23.921 19.2002 23.5888 19.2002 23.7549V24.0871C19.0302 24.4194 19.5402 24.5855 19.5402 25.0839C19.7102 25.4161 19.5402 25.5822 19.8802 25.9144C19.8802 26.2467 19.8802 26.9112 20.2202 27.2434V27.5756C20.2202 27.9079 19.8802 27.9079 19.8802 27.9079C19.8802 27.9079 20.0502 27.9079 20.0502 28.074C20.5602 27.4095 21.0702 26.9112 21.9202 26.2467L21.5802 25.9144C21.2402 25.25 20.7302 24.4194 20.5602 23.5888L20.3902 23.4227C20.3902 23.7549 20.2202 23.7549 20.2202 24.0871C20.0502 24.0871 19.8802 23.921 19.8802 23.921C19.8802 23.921 19.7102 23.7549 19.8802 23.5888H20.0502V23.2566C20.0502 23.0904 19.8802 22.9243 20.0502 22.9243C20.2202 22.9243 20.3902 23.0904 20.3902 23.2566C20.5602 23.2566 20.7302 23.2566 20.7302 23.0904C20.7302 22.9243 20.9002 22.7582 20.7302 22.7582C20.9002 22.426 20.7302 22.2598 20.7302 21.9276C20.5602 21.7615 20.3902 21.9276 20.2202 21.9276C19.7102 22.0937 20.3902 22.426 20.2202 22.9243C19.8802 23.4227 19.7102 23.0904 19.5402 23.2566ZM36.8802 23.2566C36.7102 25.5822 35.8602 27.4095 34.6702 29.2368C34.3302 29.5691 34.3302 29.9013 33.8202 30.0674C34.3302 30.3996 34.8402 31.0641 35.3502 31.5625C37.3902 29.2368 38.5802 26.5789 38.5802 23.4227V23.2566H36.8802ZM18.5202 15.2829C20.5602 13.4556 22.7702 12.4589 25.4902 12.2927V10.2993C22.7702 10.4654 20.3902 11.296 18.1802 12.7911C17.8402 13.1233 17.5002 13.4556 16.9902 13.7878C17.6702 14.12 18.1802 14.6184 18.5202 15.2829ZM25.4902 15.6151C23.7902 15.7812 22.2602 16.4457 20.9002 17.4424C21.4102 17.7746 21.9202 18.4391 22.2602 18.7714C22.2602 18.7714 22.2602 18.6052 22.4302 18.6052C23.1102 18.273 23.7902 17.7746 24.4702 17.6085C24.8102 17.6085 25.1502 17.4424 25.4902 17.4424V15.6151ZM25.4902 18.1069C24.3002 18.273 23.4502 18.7714 22.6002 19.6019H22.7702C22.9402 19.7681 23.1102 19.7681 23.2802 19.9342C23.2802 20.1003 23.1102 20.1003 23.1102 20.2664H23.2802C23.4502 20.2664 23.4502 20.2664 23.4502 20.1003C23.6202 19.9342 23.6202 20.2664 23.7902 20.2664H24.1302C24.3002 20.1003 24.4702 20.2664 24.4702 20.1003C24.8102 19.7681 24.6402 19.6019 24.8102 19.4358C24.9802 19.4358 24.8102 19.6019 24.8102 19.7681C25.1502 19.9342 25.1502 19.6019 25.4902 19.7681V18.1069ZM25.6602 21.097C25.3202 21.4292 25.1502 21.4292 24.8102 21.5954C24.6402 21.7615 24.8102 21.9276 24.4702 21.9276C24.4702 22.0937 24.1302 22.2598 24.1302 22.2598C23.9602 22.5921 24.1302 22.7582 23.9602 23.0904C23.6202 23.4227 23.6202 22.7582 23.4502 22.7582H22.9402C22.7702 22.9243 22.6002 23.0904 22.7702 23.0904C22.7702 23.2566 22.4302 23.0904 22.4302 23.4227C22.7702 23.4227 22.7702 23.4227 23.1102 23.2566H23.4502C23.4502 23.2566 23.6202 23.2566 23.6202 23.4227C23.7902 23.4227 23.7902 23.0904 23.7902 23.0904C23.7902 22.9243 23.9602 22.9243 24.1302 22.9243C24.3002 22.9243 24.1302 23.0904 24.1302 23.0904C24.4702 23.2566 24.1302 23.4227 23.9602 23.5888C23.9602 23.7549 23.9602 23.921 23.6202 23.921V23.7549C23.6202 23.921 23.6202 24.0871 23.7902 24.0871C23.9602 23.921 23.9602 23.7549 24.1302 23.7549C24.3002 23.5888 24.1302 23.4227 24.3002 23.2566C24.6402 23.2566 24.9802 23.0904 25.3202 23.4227V23.7549C25.3202 23.921 25.1502 24.0871 24.9802 24.0871V24.4194C24.8102 24.7516 24.4702 24.7516 24.1302 24.7516C24.4702 25.0839 25.1502 25.0839 25.6602 25.0839C26.0002 25.0839 25.8302 24.7516 26.0002 24.5855C26.1702 24.2533 26.5102 24.4194 26.8502 24.2533C27.0202 23.921 27.1902 23.921 27.1902 23.5888C26.8502 23.4227 26.8502 23.2566 26.8502 23.0904C26.6802 22.9243 26.6802 22.7582 26.5102 22.7582V22.5921C26.5102 22.426 26.6802 22.426 26.6802 22.2598C26.5102 22.0937 26.5102 21.9276 26.5102 21.9276C26.1702 21.9276 26.1702 21.5954 26.0002 21.5954C26.0002 21.4292 25.6602 21.4293 25.6602 21.2631C25.3202 21.4293 25.3202 20.9309 24.9802 20.9309V20.5987C25.1502 20.4325 25.3202 20.5987 25.3202 20.5987H25.1502C24.9802 20.4325 24.8102 20.5987 24.6402 20.5987C25.6602 20.9309 25.4902 20.9309 25.6602 21.097Z"
          fill="#0063AC"
        />
        <path
          d="M15.12 22.5922V22.26C15.29 20.1004 15.97 18.2731 17.16 16.612C17.5 16.2797 17.67 15.7814 18.18 15.6152L16.82 14.2863C14.95 16.4458 13.59 18.9376 13.42 21.5955C13.42 21.9277 13.42 22.4261 13.25 22.7583C13.76 22.4261 14.61 22.4261 15.12 22.5922ZM33.65 30.5659C33.48 30.8981 32.97 31.2304 32.63 31.5626C32.29 31.8949 31.61 32.061 31.27 32.7254C30.93 33.0577 30.93 33.2238 30.59 33.3899C30.42 33.7222 30.25 33.7222 29.91 33.8883C29.4 34.3866 28.89 33.556 28.55 33.556L27.53 33.7222C27.19 33.7222 26.85 33.8883 26.51 33.7222V35.7156H26.68C29.91 35.5495 32.8 34.3866 35.18 32.2271L33.65 30.8981V30.5659ZM26.34 12.1268C26.51 11.9606 26.51 11.9606 26.68 12.1268V12.459H26.85C28.38 12.6251 29.91 12.9574 31.1 13.7879C31.44 13.6218 31.78 13.4557 31.95 13.7879C32.29 13.6218 32.29 14.1202 32.63 14.1202C32.8 14.1202 33.14 14.6185 33.14 14.9508C33.14 15.1169 33.48 15.283 33.48 15.283C33.82 14.9508 34.16 14.4524 34.5 14.1202L34.84 13.9541C32.8 12.1268 30.25 10.9639 27.7 10.6317C27.36 10.6317 26.68 10.6317 26.34 10.4656V12.1268Z"
          fill="#0063AC"
        />
        <path
          d="M26.3398 14.9506C26.6798 14.7844 26.8498 14.9506 27.1898 14.9506C28.5498 15.2828 29.7398 15.615 30.9298 16.4456C30.7598 16.2795 30.5898 16.1134 30.5898 15.9473C30.5898 15.615 30.2498 15.615 30.2498 15.4489H30.4198C30.7598 15.7811 30.7598 15.7811 30.9298 16.1134C31.0998 16.1134 31.2698 16.1134 31.2698 16.2795C31.2698 16.4456 31.2698 16.6117 31.6098 16.7779C31.6098 17.1101 32.1198 17.4423 32.1198 17.7746C32.1198 17.9407 32.2898 17.7746 32.2898 17.7746L32.6298 18.2729V18.6052C32.7998 18.6052 32.9698 18.439 32.9698 18.439C33.3098 18.6052 32.9698 18.7713 32.9698 18.9374H33.3098C33.3098 19.1035 33.1398 19.2696 33.1398 19.2696C33.1398 19.4358 33.3098 19.4358 33.4798 19.4358C33.6498 19.4358 33.6498 19.6019 33.6498 19.768C33.9898 20.1002 33.4798 20.4325 33.6498 20.7647C33.8198 21.0969 33.6498 21.0969 33.4798 21.4292C33.4798 21.7614 33.1398 21.7614 33.1398 22.0936H32.7998C32.6298 22.2598 32.9698 22.4259 32.7998 22.592H33.4798C33.3098 22.2598 33.4798 21.9275 33.6498 21.5953C33.8198 21.2631 33.8198 21.0969 33.9898 20.9308C33.9898 20.9308 34.1598 20.7647 34.1598 20.9308C34.1598 21.2631 34.1598 21.4292 33.9898 21.5953C34.3298 21.9275 34.1598 22.2598 34.3298 22.592H36.3698V22.4259C36.1998 21.2631 36.0298 19.9341 35.5198 18.9374C35.3498 18.9374 35.1798 19.1035 35.1798 18.9374C35.1798 18.9374 35.0098 18.9374 35.1798 18.7713C34.8398 18.439 34.8398 18.2729 34.4998 17.9407C34.1598 17.9407 33.9898 17.6085 33.6498 17.6085C33.3098 17.6085 33.4798 17.1101 33.1398 17.2762C32.9698 17.2762 32.7998 16.944 32.7998 16.944C32.7998 16.6117 32.7998 16.2795 32.4598 15.9473C32.1198 15.7811 32.1198 16.2795 31.9498 16.1134C31.7798 16.1134 31.9498 15.7811 31.7798 15.7811C31.7798 15.615 31.6098 15.615 31.6098 15.4489C31.9498 15.1167 31.2698 15.1167 31.2698 14.6183C31.2698 14.2861 30.9298 14.2861 30.7598 13.9538C29.7398 13.6216 28.7198 13.1233 27.5298 12.9571C27.1898 12.9571 27.0198 12.9571 26.6798 12.791V12.9571C26.3398 13.7877 26.3398 14.2861 26.3398 14.9506Z"
          fill="#0063AC"
        />
        <path
          d="M33.6499 15.6151C33.8199 15.6151 33.8199 15.9473 33.9899 15.9473C34.4999 16.2796 34.6699 16.7779 35.0099 16.944C35.3499 17.4424 35.8599 17.9407 35.8599 18.4391C36.3699 19.768 36.8799 20.9309 36.8799 22.5921H38.9199C38.7499 22.4259 38.9199 22.2598 38.7499 21.9276C38.4099 18.9374 37.2199 16.4457 35.1799 14.2861C34.8399 14.7845 34.3299 15.2828 33.6499 15.6151Z"
          fill="#0063AC"
        />
        <path
          d="M26.5098 11.7944C26.5098 11.6283 26.8498 11.7944 26.8498 11.7944L27.8698 11.4622C28.2098 11.4622 28.7198 11.4622 28.8898 11.7944C28.5498 12.1266 28.3798 12.1266 28.0398 12.1266C27.5298 12.1266 27.0198 12.2927 26.5098 11.7944ZM32.2898 12.9572C32.4598 12.9572 32.6298 13.1233 32.6298 13.2895C32.6298 13.4556 32.7998 13.6217 32.6298 13.6217C32.2898 13.7878 32.2898 13.2895 31.9498 13.2895V13.1233C32.1198 12.7911 32.1198 13.1233 32.2898 12.9572Z"
          fill="white"
        />
      </g>
      <defs>
        <clipPath id="clip0_2228_29093">
          <rect
            width="51"
            height="101"
            fill="white"
            transform="translate(0.5)"
          />
        </clipPath>
      </defs>
    </svg>